PathFileType	4	(X/Y/Z)	59_1_30_p1_0-250_filt_butterworth.trc
DataRate	CameraRate	NumFrames	NumMarkers	Units	OrigDataRate	OrigDataStartFrame	OrigNumFrames
60.0	60.0	6	27	m	60.0	156	250
Frame#	Time	RHip			RKnee			RAnkle			RBigToe			RSmallToe			RHeel			LHip			LKnee			LAnkle			LBigToe			LSmallToe			LHeel			Neck			Head			Nose			RShoulder			RElbow			RWrist			RThumb			RIndex			RPinky			LShoulder			LElbow			LWrist			LThumb			LIndex			LPinky			
		X1	Y1	Z1	X2	Y2	Z2	X3	Y3	Z3	X4	Y4	Z4	X5	Y5	Z5	X6	Y6	Z6	X7	Y7	Z7	X8	Y8	Z8	X9	Y9	Z9	X10	Y10	Z10	X11	Y11	Z11	X12	Y12	Z12	X13	Y13	Z13	X14	Y14	Z14	X15	Y15	Z15	X16	Y16	Z16	X17	Y17	Z17	X18	Y18	Z18	X19	Y19	Z19	X20	Y20	Z20	X21	Y21	Z21	X22	Y22	Z22	X23	Y23	Z23	X24	Y24	Z24	X25	Y25	Z25	X26	Y26	Z26	X27	Y27	Z27	
156	2.6	0.3076988090095494	0.7947147846420275	0.6011168089600688	0.29558059922521474	0.3446330544943947	0.6825416531494995	0.2965995771365231	-0.05684463968827261	0.7387537767927176	0.2856440507238482	-0.0985754515902277	0.5837655432966519	0.3434482566082317	-0.08476522321297592	0.6071336005045948	0.2816776037291285	-0.14428927525693297	0.8151756116758369	0.08130030749387902	0.7848944161648511	0.6210958000155448	0.10401963136494621	0.30037412443941125	0.7178926752380753	0.10252240556939198	-0.062429732372542304	0.7306649028845045	0.11997137287856052	-0.09909942457895561	0.5889277459745297	0.06351063539851128	-0.07953634686593516	0.6110859574511621	0.11313004186601572	-0.10995129644269272	0.7535946090062048	0.2213613370145271	1.3649765435976478	0.6468580656977704	0.22725782203713987	1.6192271425139757	0.6283068293572689	0.22156907561745562	1.4951194580766356	0.5532322524822728	0.37526842632144974	1.2474104738050988	0.649284217674434	0.41936221256531225	1.001004541497753	0.5852286700893123	0.44053902092932046	0.7630674288974866	0.5258132064853002	0.4010078050768723	0.6438815450758125	0.4870497303999967	0.4286136887975231	0.6246924234394635	0.48464245282880797	0.450909429730807	0.6379889575163046	0.5279638289165987	0.052631812126576014	1.260115344422522	0.6442839833559673	0.008217641529584043	0.9865602561244196	0.633621440026451	-0.020720769302543372	0.7812036863759483	0.5694551974179438	0.026479608698650278	0.6684683572183931	0.5619692542599575	0.0049643058724910556	0.6473013039617743	0.5234915139303395	-0.05237386678196422	0.6308357113215652	0.5859036049915907	
157	2.6166666666666667	0.3065567156231745	0.7959968858415327	0.6018164814986262	0.2960792826924793	0.3439465644944782	0.6840695249928794	0.2969241637165366	-0.05819289078256283	0.7398055674803208	0.2856309604246431	-0.09858585691327904	0.5838726748915724	0.3427195020426085	-0.08466295962207385	0.6078936251233631	0.28182024808038453	-0.14449858902499488	0.8151042304463327	0.08079222758755196	0.7856497387126196	0.6212179835737859	0.10362381121658833	0.3001200247704765	0.7190257253048882	0.10255332351916838	-0.06256445100830058	0.7308792614345118	0.12070770889839028	-0.10233125287768183	0.5916050452137087	0.06251877672284686	-0.08149885203536583	0.6137237105273167	0.11341058680920162	-0.10997171351095071	0.7535378992762328	0.2213080257411859	1.3656724972818075	0.6477338031495702	0.22750232154553218	1.6195771181482637	0.6290351744633771	0.22156298120664308	1.4952870061604169	0.5535568427442041	0.3750408672484633	1.24862800669472	0.6491419044540236	0.4194809394909615	1.0031251266498011	0.5823709654864229	0.44314014641757327	0.7664785908844203	0.51848964027926	0.40318801510219804	0.6478015476331451	0.47306434116902285	0.4306586954870001	0.6313627889321197	0.46812271317960497	0.4524487028396468	0.6410183938924027	0.5189373080231582	0.053299399697105565	1.2601829355060858	0.6446494052184659	0.010953656854741738	0.990043951843897	0.6233821217842477	-0.01811037426645865	0.7861718130864853	0.5558865811634713	0.023347932228503843	0.6695985388031389	0.5518007610363332	0.0033990237416767306	0.6493560528058808	0.5179013566347564	-0.05347148738198657	0.63394299337643	0.5781472222278186	
158	2.6333333333333333	0.3055280956604886	0.7970331739108113	0.6038785688318642	0.29659797799300003	0.34318632940086224	0.6858196901353051	0.2972741984799865	-0.05957041673757123	0.7410175148286126	0.2856256911252761	-0.09859283348473474	0.5839550380321693	0.3420577695342278	-0.08468128373983004	0.6085935494178395	0.2820265949773791	-0.1448207145675011	0.815331031568674	0.08033263146721496	0.7860118411754027	0.622617384748479	0.10327276075786783	0.29998796957029344	0.7199615600529221	0.1025494185682888	-0.06253509004700937	0.731250374948492	0.12129516182264519	-0.10423198342004777	0.5942928510313223	0.06176465068273458	-0.08300873196335387	0.6158174735316408	0.11373622282427322	-0.1098290110351689	0.7533543975542375	0.22121131005368497	1.3659806836904325	0.6501632175172032	0.2279246938469776	1.6200230358933767	0.630374929881807	0.2215860300913428	1.4956550414704413	0.5538572843939047	0.37480038888597267	1.249840720816015	0.6490065054156777	0.4199347988884514	1.0054764979108581	0.579113481715743	0.446116707439114	0.7707835397516136	0.508029646395812	0.4036447823929681	0.6518049021802721	0.4589368447005404	0.43142559213273385	0.6393161626812791	0.44763792731203045	0.455113647207846	0.6454350959156029	0.5053559180481856	0.05376496836556394	1.2604849085526435	0.6448673404410825	0.012703665859886568	0.9932266354276915	0.6147194222861554	-0.015379210861144424	0.7908310889784662	0.5431662882159561	0.020800084517422303	0.671979474652123	0.5391605569370017	0.002262154749393337	0.6516903501664769	0.5121431818828853	-0.053214230827107994	0.6389099272136098	0.5670603951796551	
159	2.65	0.3047410947951123	0.7977276601061122	0.6076505784903542	0.2971119456607205	0.34241077967661077	0.6877999466399286	0.29757092373147254	-0.06090801306506062	0.7420800328860532	0.2856147270810445	-0.09859755359292979	0.5840023880973234	0.3416802721941129	-0.08496209212869266	0.6090476438837127	0.2822778943078554	-0.14516296485995892	0.8158154700628605	0.0800273411797834	0.7861325184300241	0.6251991064761374	0.10297882917267312	0.2999236278239181	0.7206796256962941	0.10252355910138103	-0.06239332886279347	0.7316735490983336	0.12166794376526141	-0.1048185248125638	0.5966591983825936	0.061351183783922	-0.08385311234800177	0.6170634049442044	0.11407486574982462	-0.10937491543105612	0.7527860710585734	0.2210800115291011	1.3657627407588329	0.6540426651756285	0.22846569171568232	1.62053946797548	0.6321889923246897	0.22164389248792574	1.4962098353437165	0.5540920524212685	0.3745861487380018	1.2509832322417267	0.6489121940911131	0.42055154619146806	1.0079954892879939	0.575053580637638	0.449198970582889	0.775772499638895	0.49485929875398843	0.40256227998087024	0.6558962131633838	0.4447624685276992	0.4312482187075075	0.6482463286901076	0.42436469954542927	0.4588799900905506	0.6509862801245742	0.4881867221452689	0.05402533444819581	1.2609960107883518	0.645048535387069	0.013346376492400171	0.9959229799765879	0.6076899438932177	-0.012562587142511742	0.7945902246708146	0.5320594665218799	0.020092478071798224	0.6757357330531492	0.5233442622269997	0.002784695255617391	0.6551094449302992	0.5041987322328603	-0.051534730749024885	0.6456770020126061	0.5516634504872049	
160	2.6666666666666665	0.3042435183129334	0.7979726574090654	0.613038905980356	0.29765217955929324	0.34164285546236517	0.6899698507618434	0.2978043720792573	-0.06215591393095875	0.7427991470959923	0.28559729666210126	-0.09863909020673897	0.5840685372106261	0.3417052000656271	-0.08549575776886763	0.6092556200248207	0.2825645754411367	-0.14550333112766492	0.8165122503184925	0.07991431410579229	0.7862221884294958	0.6284315735996059	0.10275851683426221	0.299842321737917	0.7211807378904059	0.10249106115292611	-0.06220621399959289	0.7320584132046158	0.12186549637700297	-0.10449410248044791	0.598584055178035	0.06127109006218848	-0.08404524050957454	0.6174123707117607	0.11442344219319357	-0.1086093014990657	0.7517929794653019	0.2209313704362783	1.3650999143578986	0.6588510899007283	0.2290501718474796	1.6210886646712515	0.6342941053741898	0.22171779690851862	1.496896687712276	0.5542475266918097	0.3744324116185878	1.2521376254417032	0.6488743744549654	0.4210963648123459	1.010597068354068	0.5701182546097553	0.45182964325368735	0.7812021698900958	0.47983916173617613	0.4004635554630658	0.6600745155209492	0.43099741529099733	0.4305927291864201	0.6575295468688025	0.40082713806361714	0.46323434983550105	0.6571919684524565	0.4696921050615651	0.054193163591042856	1.2615982159164694	0.6455105017231337	0.013187775626322687	0.9982122524447583	0.6016693870459044	-0.009458400783669569	0.7973566841827444	0.5220770750713308	0.022034291109895673	0.6807114017740453	0.5049067132137629	0.005883556869373233	0.6601727842376093	0.4925509102380665	-0.0487159202352406	0.653763036608322	0.5322520278393672	
161	2.683333333333333	0.3040295711439436	0.7976283429823184	0.6195424457065514	0.29829783716428854	0.34088387173396795	0.6923469042041351	0.29800352718432666	-0.06325365708283011	0.7431651467841096	0.2856313565017424	-0.09880796299270073	0.5843024334111155	0.34218236041295036	-0.08613672020591681	0.6094467552447677	0.28288247959723545	-0.14584845840941646	0.817387777189332	0.07999749179137156	0.7862976901679384	0.631761284326124	0.10263213583042673	0.29971018571617014	0.7214784607731007	0.10246009040722658	-0.062010734212602905	0.732381377525234	0.12197791734711652	-0.10379659444542375	0.6002274536983928	0.06137415629444328	-0.08385700409370711	0.6172140730100493	0.11474793894578703	-0.10775812327744132	0.7506987627072761	0.22078228777252945	1.36421802333765	0.6639528167513227	0.2296034541731765	1.6215536986321473	0.6364456786505238	0.22174245765636455	1.497633858733183	0.5543444495170609	0.3743485301103245	1.2533931759369692	0.6488713710465553	0.42140313038981236	1.0132997371785892	0.5646918741855775	0.45330385093630643	0.7868771356633675	0.4640361805295854	0.39798506579207765	0.6645064985806808	0.4183285924033594	0.4296939697762077	0.6664937391208602	0.37952581052087886	0.46716026342894107	0.6640009829642134	0.4515544810657124	0.05442412038569608	1.262154667761755	0.6465395993004495	0.012714714513374581	1.0001231920403648	0.5960892286021192	-0.00564270754378998	0.7994264208617481	0.5118893019770081	0.026640998631970825	0.686265434952508	0.48543556028138857	0.011397628775568703	0.666662957890186	0.47714564677487825	-0.04505981861157107	0.6623906961168037	0.5100945214474301	
